STARTFONT 2.1
COMMENT
COMMENT Converted from OpenType font "Oxanium-Regular.ttf" by "otf2bdf 3.0".
COMMENT
FONT -FreeType-Oxanium-Medium-R-Normal--13-130-72-72-P-58-ISO10646-1
SIZE 13 72 72
FONTBOUNDINGBOX 21 17 -6 -3
STARTPROPERTIES 19
FOUNDRY "FreeType"
FAMILY_NAME "Oxanium"
WEIGHT_NAME "Medium"
SLANT "R"
SETWIDTH_NAME "Normal"
ADD_STYLE_NAME ""
PIXEL_SIZE 13
POINT_SIZE 130
RESOLUTION_X 72
RESOLUTION_Y 72
SPACING "P"
AVERAGE_WIDTH 58
CHARSET_REGISTRY "ISO10646"
CHARSET_ENCODING "1"
FONT_ASCENT 10
FONT_DESCENT 2
COPYRIGHT "Copyright 2019 The Oxanium Project Authors (https://github.com/sevmeyer/oxanium)"
_OTF_FONTFILE "Oxanium-Regular.ttf"
_OTF_PSNAME "Oxanium-Regular"
ENDPROPERTIES
CHARS 357
STARTCHAR 0000
ENCODING 0
SWIDTH 0 0
DWIDTH 0 0
BBX 0 0 0 0
BITMAP
ENDCHAR
STARTCHAR 000D
ENCODING 13
SWIDTH 230 0
DWIDTH 3 0
BBX 0 0 0 0
BITMAP
ENDCHAR
STARTCHAR 0020
ENCODING 32
SWIDTH 230 0
DWIDTH 3 0
BBX 0 0 0 0
BITMAP
ENDCHAR
STARTCHAR 0021
ENCODING 33
SWIDTH 230 0
DWIDTH 3 0
BBX 1 10 1 0
BITMAP
80
80
80
80
80
80
80
00
80
80
ENDCHAR
STARTCHAR 0022
ENCODING 34
SWIDTH 384 0
DWIDTH 5 0
BBX 3 4 1 6
BITMAP
A0
A0
A0
A0
ENDCHAR
STARTCHAR 0023
ENCODING 35
SWIDTH 692 0
DWIDTH 9 0
BBX 7 10 1 0
BITMAP
48
48
48
FE
48
48
FE
48
48
48
ENDCHAR
STARTCHAR 0024
ENCODING 36
SWIDTH 615 0
DWIDTH 8 0
BBX 6 13 1 -2
BITMAP
20
20
F8
80
80
80
78
0C
04
0C
F8
20
20
ENDCHAR
STARTCHAR 0025
ENCODING 37
SWIDTH 846 0
DWIDTH 11 0
BBX 10 10 1 0
BITMAP
E200
A200
A400
A400
AB80
EA40
1240
1240
1240
2380
ENDCHAR
STARTCHAR 0026
ENCODING 38
SWIDTH 692 0
DWIDTH 9 0
BBX 7 10 1 0
BITMAP
78
80
80
80
7E
84
84
84
84
FC
ENDCHAR
STARTCHAR 0027
ENCODING 39
SWIDTH 230 0
DWIDTH 3 0
BBX 1 4 1 6
BITMAP
80
80
80
80
ENDCHAR
STARTCHAR 0028
ENCODING 40
SWIDTH 307 0
DWIDTH 4 0
BBX 3 12 1 -2
BITMAP
20
40
40
80
80
80
80
80
80
40
40
20
ENDCHAR
STARTCHAR 0029
ENCODING 41
SWIDTH 307 0
DWIDTH 4 0
BBX 3 12 0 -2
BITMAP
80
40
40
20
20
20
20
20
20
40
40
80
ENDCHAR
STARTCHAR 002A
ENCODING 42
SWIDTH 538 0
DWIDTH 7 0
BBX 5 5 1 5
BITMAP
20
20
F8
60
90
ENDCHAR
STARTCHAR 002B
ENCODING 43
SWIDTH 615 0
DWIDTH 8 0
BBX 6 7 1 1
BITMAP
20
20
20
FC
20
20
20
ENDCHAR
STARTCHAR 002C
ENCODING 44
SWIDTH 230 0
DWIDTH 3 0
BBX 2 3 0 -1
BITMAP
40
40
80
ENDCHAR
STARTCHAR 002D
ENCODING 45
SWIDTH 384 0
DWIDTH 5 0
BBX 3 1 1 4
BITMAP
E0
ENDCHAR
STARTCHAR 002E
ENCODING 46
SWIDTH 230 0
DWIDTH 3 0
BBX 1 2 1 0
BITMAP
80
80
ENDCHAR
STARTCHAR 002F
ENCODING 47
SWIDTH 384 0
DWIDTH 5 0
BBX 5 11 0 -1
BITMAP
08
10
10
10
20
20
20
40
40
40
80
ENDCHAR
STARTCHAR 0030
ENCODING 48
SWIDTH 615 0
DWIDTH 8 0
BBX 6 10 1 0
BITMAP
F8
84
84
84
84
84
84
84
84
F8
ENDCHAR
STARTCHAR 0031
ENCODING 49
SWIDTH 615 0
DWIDTH 8 0
BBX 6 10 1 0
BITMAP
70
30
30
30
30
30
30
30
30
FC
ENDCHAR
STARTCHAR 0032
ENCODING 50
SWIDTH 615 0
DWIDTH 8 0
BBX 6 10 1 0
BITMAP
F8
04
04
04
18
E0
80
80
80
FC
ENDCHAR
STARTCHAR 0033
ENCODING 51
SWIDTH 615 0
DWIDTH 8 0
BBX 6 10 1 0
BITMAP
F8
04
04
04
78
04
04
04
04
F8
ENDCHAR
STARTCHAR 0034
ENCODING 52
SWIDTH 615 0
DWIDTH 8 0
BBX 6 10 1 0
BITMAP
10
20
20
60
44
C4
84
FC
04
04
ENDCHAR
STARTCHAR 0035
ENCODING 53
SWIDTH 615 0
DWIDTH 8 0
BBX 6 10 1 0
BITMAP
F8
80
80
80
F8
04
04
04
04
F8
ENDCHAR
STARTCHAR 0036
ENCODING 54
SWIDTH 615 0
DWIDTH 8 0
BBX 6 10 1 0
BITMAP
78
80
80
80
F8
84
84
84
84
F8
ENDCHAR
STARTCHAR 0037
ENCODING 55
SWIDTH 615 0
DWIDTH 8 0
BBX 6 10 1 0
BITMAP
FC
04
0C
08
18
10
10
20
20
40
ENDCHAR
STARTCHAR 0038
ENCODING 56
SWIDTH 615 0
DWIDTH 8 0
BBX 6 10 1 0
BITMAP
F8
84
84
84
78
84
84
84
84
F8
ENDCHAR
STARTCHAR 0039
ENCODING 57
SWIDTH 615 0
DWIDTH 8 0
BBX 6 10 1 0
BITMAP
F8
84
84
84
84
FC
04
04
0C
F8
ENDCHAR
STARTCHAR 003A
ENCODING 58
SWIDTH 230 0
DWIDTH 3 0
BBX 1 7 1 0
BITMAP
80
80
00
00
00
80
80
ENDCHAR
STARTCHAR 003B
ENCODING 59
SWIDTH 230 0
DWIDTH 3 0
BBX 2 8 0 -1
BITMAP
40
40
00
00
00
40
40
80
ENDCHAR
STARTCHAR 003C
ENCODING 60
SWIDTH 615 0
DWIDTH 8 0
BBX 6 7 1 1
BITMAP
04
18
60
80
60
18
04
ENDCHAR
STARTCHAR 003D
ENCODING 61
SWIDTH 615 0
DWIDTH 8 0
BBX 6 4 1 2
BITMAP
FC
00
00
FC
ENDCHAR
STARTCHAR 003E
ENCODING 62
SWIDTH 615 0
DWIDTH 8 0
BBX 6 7 1 1
BITMAP
80
E0
18
04
18
E0
80
ENDCHAR
STARTCHAR 003F
ENCODING 63
SWIDTH 538 0
DWIDTH 7 0
BBX 5 10 1 0
BITMAP
F0
08
08
08
08
70
40
00
40
40
ENDCHAR
STARTCHAR 0040
ENCODING 64
SWIDTH 769 0
DWIDTH 10 0
BBX 8 12 1 -2
BITMAP
7F
81
81
8F
91
91
91
91
8F
80
80
7F
ENDCHAR
STARTCHAR 0041
ENCODING 65
SWIDTH 615 0
DWIDTH 8 0
BBX 8 10 0 0
BITMAP
18
18
24
24
24
22
7E
42
41
81
ENDCHAR
STARTCHAR 0042
ENCODING 66
SWIDTH 615 0
DWIDTH 8 0
BBX 7 10 1 0
BITMAP
FC
84
84
84
FC
84
86
86
84
FC
ENDCHAR
STARTCHAR 0043
ENCODING 67
SWIDTH 615 0
DWIDTH 8 0
BBX 6 10 1 0
BITMAP
7C
80
80
80
80
80
80
80
80
7C
ENDCHAR
STARTCHAR 0044
ENCODING 68
SWIDTH 692 0
DWIDTH 9 0
BBX 7 10 1 0
BITMAP
FC
86
82
82
82
82
82
82
86
FC
ENDCHAR
STARTCHAR 0045
ENCODING 69
SWIDTH 615 0
DWIDTH 8 0
BBX 6 10 1 0
BITMAP
FC
80
80
80
FC
80
80
80
80
FC
ENDCHAR
STARTCHAR 0046
ENCODING 70
SWIDTH 538 0
DWIDTH 7 0
BBX 6 10 1 0
BITMAP
FC
80
80
80
80
FC
80
80
80
80
ENDCHAR
STARTCHAR 0047
ENCODING 71
SWIDTH 692 0
DWIDTH 9 0
BBX 7 10 1 0
BITMAP
7E
80
80
80
9E
82
82
82
82
7E
ENDCHAR
STARTCHAR 0048
ENCODING 72
SWIDTH 692 0
DWIDTH 9 0
BBX 7 10 1 0
BITMAP
82
82
82
82
FE
82
82
82
82
82
ENDCHAR
STARTCHAR 0049
ENCODING 73
SWIDTH 230 0
DWIDTH 3 0
BBX 1 10 1 0
BITMAP
80
80
80
80
80
80
80
80
80
80
ENDCHAR
STARTCHAR 004A
ENCODING 74
SWIDTH 615 0
DWIDTH 8 0
BBX 6 10 1 0
BITMAP
3C
04
04
04
04
04
84
84
84
F8
ENDCHAR
STARTCHAR 004B
ENCODING 75
SWIDTH 615 0
DWIDTH 8 0
BBX 7 10 1 0
BITMAP
86
8C
98
90
B0
D0
88
88
84
86
ENDCHAR
STARTCHAR 004C
ENCODING 76
SWIDTH 538 0
DWIDTH 7 0
BBX 6 10 1 0
BITMAP
80
80
80
80
80
80
80
80
80
FC
ENDCHAR
STARTCHAR 004D
ENCODING 77
SWIDTH 846 0
DWIDTH 11 0
BBX 9 10 1 0
BITMAP
C180
C180
A180
A280
B280
9480
9480
8C80
8880
8080
ENDCHAR
STARTCHAR 004E
ENCODING 78
SWIDTH 692 0
DWIDTH 9 0
BBX 7 10 1 0
BITMAP
C2
C2
A2
A2
92
9A
8A
86
86
82
ENDCHAR
STARTCHAR 004F
ENCODING 79
SWIDTH 692 0
DWIDTH 9 0
BBX 7 10 1 0
BITMAP
7E
82
82
82
82
82
82
82
82
7E
ENDCHAR
STARTCHAR 0050
ENCODING 80
SWIDTH 615 0
DWIDTH 8 0
BBX 6 10 1 0
BITMAP
FC
84
84
84
84
FC
80
80
80
80
ENDCHAR
STARTCHAR 0051
ENCODING 81
SWIDTH 692 0
DWIDTH 9 0
BBX 7 12 1 -2
BITMAP
7E
82
82
82
82
82
82
82
82
7E
0C
04
ENDCHAR
STARTCHAR 0052
ENCODING 82
SWIDTH 615 0
DWIDTH 8 0
BBX 7 10 1 0
BITMAP
FC
84
84
84
84
FC
88
8C
84
86
ENDCHAR
STARTCHAR 0053
ENCODING 83
SWIDTH 615 0
DWIDTH 8 0
BBX 6 10 1 0
BITMAP
FC
80
80
80
F0
0C
04
04
04
F8
ENDCHAR
STARTCHAR 0054
ENCODING 84
SWIDTH 615 0
DWIDTH 8 0
BBX 7 10 0 0
BITMAP
FE
10
10
10
10
10
10
10
10
10
ENDCHAR
STARTCHAR 0055
ENCODING 85
SWIDTH 692 0
DWIDTH 9 0
BBX 7 10 1 0
BITMAP
82
82
82
82
82
82
82
82
82
7C
ENDCHAR
STARTCHAR 0056
ENCODING 86
SWIDTH 615 0
DWIDTH 8 0
BBX 8 10 0 0
BITMAP
81
42
42
42
66
24
24
24
18
18
ENDCHAR
STARTCHAR 0057
ENCODING 87
SWIDTH 923 0
DWIDTH 12 0
BBX 12 10 0 0
BITMAP
C030
4620
4620
4620
4620
6940
2940
2940
2940
30C0
ENDCHAR
STARTCHAR 0058
ENCODING 88
SWIDTH 615 0
DWIDTH 8 0
BBX 8 10 0 0
BITMAP
42
66
24
18
18
18
3C
24
42
C3
ENDCHAR
STARTCHAR 0059
ENCODING 89
SWIDTH 615 0
DWIDTH 8 0
BBX 7 10 0 0
BITMAP
C2
46
64
24
28
18
10
10
10
10
ENDCHAR
STARTCHAR 005A
ENCODING 90
SWIDTH 615 0
DWIDTH 8 0
BBX 6 10 1 0
BITMAP
FC
0C
08
10
10
20
60
40
80
FC
ENDCHAR
STARTCHAR 005B
ENCODING 91
SWIDTH 307 0
DWIDTH 4 0
BBX 3 12 1 -2
BITMAP
E0
80
80
80
80
80
80
80
80
80
80
E0
ENDCHAR
STARTCHAR 005C
ENCODING 92
SWIDTH 384 0
DWIDTH 5 0
BBX 5 11 0 -1
BITMAP
80
40
40
40
20
20
20
10
10
10
08
ENDCHAR
STARTCHAR 005D
ENCODING 93
SWIDTH 307 0
DWIDTH 4 0
BBX 3 12 0 -2
BITMAP
E0
20
20
20
20
20
20
20
20
20
20
E0
ENDCHAR
STARTCHAR 005E
ENCODING 94
SWIDTH 538 0
DWIDTH 7 0
BBX 6 5 1 5
BITMAP
20
50
50
88
8C
ENDCHAR
STARTCHAR 005F
ENCODING 95
SWIDTH 615 0
DWIDTH 8 0
BBX 6 1 1 -3
BITMAP
FC
ENDCHAR
STARTCHAR 0060
ENCODING 96
SWIDTH 538 0
DWIDTH 7 0
BBX 2 3 2 8
BITMAP
80
80
40
ENDCHAR
STARTCHAR 0061
ENCODING 97
SWIDTH 538 0
DWIDTH 7 0
BBX 5 7 1 0
BITMAP
F8
08
08
F8
88
88
F8
ENDCHAR
STARTCHAR 0062
ENCODING 98
SWIDTH 615 0
DWIDTH 8 0
BBX 6 10 1 0
BITMAP
80
80
80
F8
84
84
84
84
84
F8
ENDCHAR
STARTCHAR 0063
ENCODING 99
SWIDTH 538 0
DWIDTH 7 0
BBX 5 7 1 0
BITMAP
F8
80
80
80
80
80
F8
ENDCHAR
STARTCHAR 0064
ENCODING 100
SWIDTH 615 0
DWIDTH 8 0
BBX 6 10 1 0
BITMAP
0C
0C
0C
FC
8C
8C
8C
8C
8C
FC
ENDCHAR
STARTCHAR 0065
ENCODING 101
SWIDTH 538 0
DWIDTH 7 0
BBX 6 7 1 0
BITMAP
F8
88
8C
FC
80
80
F8
ENDCHAR
STARTCHAR 0066
ENCODING 102
SWIDTH 384 0
DWIDTH 5 0
BBX 4 10 1 0
BITMAP
70
80
80
F0
80
80
80
80
80
80
ENDCHAR
STARTCHAR 0067
ENCODING 103
SWIDTH 615 0
DWIDTH 8 0
BBX 6 10 1 -3
BITMAP
FC
8C
8C
8C
8C
8C
FC
0C
08
F8
ENDCHAR
STARTCHAR 0068
ENCODING 104
SWIDTH 615 0
DWIDTH 8 0
BBX 6 10 1 0
BITMAP
80
80
80
F8
84
84
84
84
84
84
ENDCHAR
STARTCHAR 0069
ENCODING 105
SWIDTH 230 0
DWIDTH 3 0
BBX 1 9 1 0
BITMAP
80
00
80
80
80
80
80
80
80
ENDCHAR
STARTCHAR 006A
ENCODING 106
SWIDTH 230 0
DWIDTH 3 0
BBX 2 12 0 -3
BITMAP
40
00
40
40
40
40
40
40
40
40
40
80
ENDCHAR
STARTCHAR 006B
ENCODING 107
SWIDTH 538 0
DWIDTH 7 0
BBX 6 10 1 0
BITMAP
80
80
80
88
90
A0
E0
D0
98
8C
ENDCHAR
STARTCHAR 006C
ENCODING 108
SWIDTH 230 0
DWIDTH 3 0
BBX 2 10 1 0
BITMAP
80
80
80
80
80
80
80
80
80
C0
ENDCHAR
STARTCHAR 006D
ENCODING 109
SWIDTH 923 0
DWIDTH 12 0
BBX 10 7 1 0
BITMAP
FF80
8840
8840
8840
8840
8840
8840
ENDCHAR
STARTCHAR 006E
ENCODING 110
SWIDTH 615 0
DWIDTH 8 0
BBX 6 7 1 0
BITMAP
F8
84
84
84
84
84
84
ENDCHAR
STARTCHAR 006F
ENCODING 111
SWIDTH 615 0
DWIDTH 8 0
BBX 6 7 1 0
BITMAP
F8
84
84
84
84
84
F8
ENDCHAR
STARTCHAR 0070
ENCODING 112
SWIDTH 615 0
DWIDTH 8 0
BBX 6 10 1 -3
BITMAP
F8
84
84
84
84
84
F8
80
80
80
ENDCHAR
STARTCHAR 0071
ENCODING 113
SWIDTH 615 0
DWIDTH 8 0
BBX 6 10 1 -3
BITMAP
FC
8C
8C
8C
8C
8C
FC
0C
0C
0C
ENDCHAR
STARTCHAR 0072
ENCODING 114
SWIDTH 384 0
DWIDTH 5 0
BBX 4 7 1 0
BITMAP
F0
80
80
80
80
80
80
ENDCHAR
STARTCHAR 0073
ENCODING 115
SWIDTH 538 0
DWIDTH 7 0
BBX 5 7 1 0
BITMAP
F0
80
80
70
08
08
F0
ENDCHAR
STARTCHAR 0074
ENCODING 116
SWIDTH 384 0
DWIDTH 5 0
BBX 4 10 1 0
BITMAP
80
80
80
F0
80
80
80
80
80
70
ENDCHAR
STARTCHAR 0075
ENCODING 117
SWIDTH 615 0
DWIDTH 8 0
BBX 6 7 1 0
BITMAP
84
84
84
84
84
84
FC
ENDCHAR
STARTCHAR 0076
ENCODING 118
SWIDTH 538 0
DWIDTH 7 0
BBX 7 7 0 0
BITMAP
86
44
44
48
28
28
30
ENDCHAR
STARTCHAR 0077
ENCODING 119
SWIDTH 769 0
DWIDTH 10 0
BBX 10 7 0 0
BITMAP
8C40
4C40
4C80
4A80
5280
3280
3100
ENDCHAR
STARTCHAR 0078
ENCODING 120
SWIDTH 538 0
DWIDTH 7 0
BBX 6 7 0 0
BITMAP
C4
68
38
10
28
48
C4
ENDCHAR
STARTCHAR 0079
ENCODING 121
SWIDTH 538 0
DWIDTH 7 0
BBX 7 10 0 -3
BITMAP
86
44
44
48
28
28
30
10
10
20
ENDCHAR
STARTCHAR 007A
ENCODING 122
SWIDTH 538 0
DWIDTH 7 0
BBX 5 7 1 0
BITMAP
F8
10
30
20
40
80
F8
ENDCHAR
STARTCHAR 007B
ENCODING 123
SWIDTH 384 0
DWIDTH 5 0
BBX 4 12 1 -2
BITMAP
70
40
40
40
40
80
80
40
40
40
40
70
ENDCHAR
STARTCHAR 007C
ENCODING 124
SWIDTH 307 0
DWIDTH 4 0
BBX 1 13 1 -3
BITMAP
80
80
80
80
80
80
80
80
80
80
80
80
80
ENDCHAR
STARTCHAR 007D
ENCODING 125
SWIDTH 384 0
DWIDTH 5 0
BBX 4 12 0 -2
BITMAP
E0
20
20
20
20
10
10
20
20
20
20
E0
ENDCHAR
STARTCHAR 007E
ENCODING 126
SWIDTH 615 0
DWIDTH 8 0
BBX 6 3 1 3
BITMAP
64
A8
98
ENDCHAR
STARTCHAR 00A0
ENCODING 160
SWIDTH 230 0
DWIDTH 3 0
BBX 0 0 0 0
BITMAP
ENDCHAR
STARTCHAR 00A1
ENCODING 161
SWIDTH 230 0
DWIDTH 3 0
BBX 1 10 1 -3
BITMAP
80
80
00
80
80
80
80
80
80
80
ENDCHAR
STARTCHAR 00A2
ENCODING 162
SWIDTH 615 0
DWIDTH 8 0
BBX 5 11 1 -2
BITMAP
10
10
78
80
80
80
80
80
78
10
10
ENDCHAR
STARTCHAR 00A3
ENCODING 163
SWIDTH 615 0
DWIDTH 8 0
BBX 6 10 1 0
BITMAP
3C
40
40
40
40
F0
40
40
40
FC
ENDCHAR
STARTCHAR 00A4
ENCODING 164
SWIDTH 615 0
DWIDTH 8 0
BBX 6 6 1 1
BITMAP
84
78
48
48
78
84
ENDCHAR
STARTCHAR 00A5
ENCODING 165
SWIDTH 615 0
DWIDTH 8 0
BBX 7 10 0 0
BITMAP
C2
44
24
28
18
7C
10
7C
10
10
ENDCHAR
STARTCHAR 00A6
ENCODING 166
SWIDTH 307 0
DWIDTH 4 0
BBX 1 13 1 -3
BITMAP
80
80
80
80
80
00
00
00
80
80
80
80
80
ENDCHAR
STARTCHAR 00A7
ENCODING 167
SWIDTH 538 0
DWIDTH 7 0
BBX 5 11 1 -1
BITMAP
78
80
80
F0
88
88
88
78
08
08
F8
ENDCHAR
STARTCHAR 00A8
ENCODING 168
SWIDTH 538 0
DWIDTH 7 0
BBX 3 1 2 8
BITMAP
A0
ENDCHAR
STARTCHAR 00A9
ENCODING 169
SWIDTH 846 0
DWIDTH 11 0
BBX 9 9 1 0
BITMAP
FF00
8080
9C80
A080
A080
A080
9C80
8080
FF00
ENDCHAR
STARTCHAR 00AA
ENCODING 170
SWIDTH 384 0
DWIDTH 5 0
BBX 4 6 1 4
BITMAP
E0
10
F0
90
90
F0
ENDCHAR
STARTCHAR 00AB
ENCODING 171
SWIDTH 538 0
DWIDTH 7 0
BBX 6 5 0 2
BITMAP
24
48
D0
48
24
ENDCHAR
STARTCHAR 00AC
ENCODING 172
SWIDTH 615 0
DWIDTH 8 0
BBX 6 4 1 1
BITMAP
FC
04
04
04
ENDCHAR
STARTCHAR 00AD
ENCODING 173
SWIDTH 384 0
DWIDTH 5 0
BBX 3 1 1 4
BITMAP
E0
ENDCHAR
STARTCHAR 00AE
ENCODING 174
SWIDTH 846 0
DWIDTH 11 0
BBX 9 9 1 0
BITMAP
FF00
8080
9C80
9480
9C80
9480
9680
8080
FF00
ENDCHAR
STARTCHAR 00AF
ENCODING 175
SWIDTH 538 0
DWIDTH 7 0
BBX 3 1 2 8
BITMAP
E0
ENDCHAR
STARTCHAR 00B0
ENCODING 176
SWIDTH 384 0
DWIDTH 5 0
BBX 4 4 1 6
BITMAP
E0
90
90
E0
ENDCHAR
STARTCHAR 00B1
ENCODING 177
SWIDTH 615 0
DWIDTH 8 0
BBX 6 7 1 0
BITMAP
20
20
FC
20
20
00
FC
ENDCHAR
STARTCHAR 00B2
ENCODING 178
SWIDTH 384 0
DWIDTH 5 0
BBX 3 6 1 4
BITMAP
E0
20
60
80
80
E0
ENDCHAR
STARTCHAR 00B3
ENCODING 179
SWIDTH 384 0
DWIDTH 5 0
BBX 3 6 1 4
BITMAP
E0
20
E0
20
20
E0
ENDCHAR
STARTCHAR 00B4
ENCODING 180
SWIDTH 538 0
DWIDTH 7 0
BBX 3 3 2 8
BITMAP
20
40
80
ENDCHAR
STARTCHAR 00B5
ENCODING 181
SWIDTH 615 0
DWIDTH 8 0
BBX 6 10 1 -3
BITMAP
84
84
84
84
84
84
F8
80
80
80
ENDCHAR
STARTCHAR 00B6
ENCODING 182
SWIDTH 615 0
DWIDTH 8 0
BBX 5 12 1 -2
BITMAP
E8
E8
E8
E8
E8
E8
08
08
08
08
08
08
ENDCHAR
STARTCHAR 00B7
ENCODING 183
SWIDTH 230 0
DWIDTH 3 0
BBX 1 2 1 3
BITMAP
80
80
ENDCHAR
STARTCHAR 00B8
ENCODING 184
SWIDTH 538 0
DWIDTH 7 0
BBX 2 3 2 -3
BITMAP
40
40
C0
ENDCHAR
STARTCHAR 00B9
ENCODING 185
SWIDTH 384 0
DWIDTH 5 0
BBX 3 6 1 4
BITMAP
C0
40
40
40
40
E0
ENDCHAR
STARTCHAR 00BA
ENCODING 186
SWIDTH 461 0
DWIDTH 6 0
BBX 4 6 1 4
BITMAP
F0
90
90
90
90
F0
ENDCHAR
STARTCHAR 00BB
ENCODING 187
SWIDTH 538 0
DWIDTH 7 0
BBX 5 5 1 2
BITMAP
B0
50
68
50
B0
ENDCHAR
STARTCHAR 00BC
ENCODING 188
SWIDTH 846 0
DWIDTH 11 0
BBX 9 10 1 0
BITMAP
C200
4200
4400
4400
4500
E900
0A80
1280
1380
2080
ENDCHAR
STARTCHAR 00BD
ENCODING 189
SWIDTH 923 0
DWIDTH 12 0
BBX 10 10 1 0
BITMAP
C200
4200
4400
4400
45C0
E840
08C0
1100
1200
23C0
ENDCHAR
STARTCHAR 00BE
ENCODING 190
SWIDTH 846 0
DWIDTH 11 0
BBX 9 10 1 0
BITMAP
E200
2200
E400
2400
2900
E900
1280
1280
1780
2080
ENDCHAR
STARTCHAR 00BF
ENCODING 191
SWIDTH 461 0
DWIDTH 6 0
BBX 5 10 1 -3
BITMAP
20
20
00
20
E0
80
80
80
80
F8
ENDCHAR
STARTCHAR 00C0
ENCODING 192
SWIDTH 615 0
DWIDTH 8 0
BBX 8 14 0 0
BITMAP
10
10
08
00
18
18
24
24
24
22
7E
42
41
81
ENDCHAR
STARTCHAR 00C1
ENCODING 193
SWIDTH 615 0
DWIDTH 8 0
BBX 8 14 0 0
BITMAP
0C
08
10
00
18
18
24
24
24
22
7E
42
41
81
ENDCHAR
STARTCHAR 00C2
ENCODING 194
SWIDTH 615 0
DWIDTH 8 0
BBX 8 14 0 0
BITMAP
08
18
24
00
18
18
24
24
24
22
7E
42
41
81
ENDCHAR
STARTCHAR 00C3
ENCODING 195
SWIDTH 615 0
DWIDTH 8 0
BBX 8 13 0 0
BITMAP
14
28
00
18
18
24
24
24
22
7E
42
41
81
ENDCHAR
STARTCHAR 00C4
ENCODING 196
SWIDTH 615 0
DWIDTH 8 0
BBX 8 12 0 0
BITMAP
24
00
18
18
24
24
24
22
7E
42
41
81
ENDCHAR
STARTCHAR 00C5
ENCODING 197
SWIDTH 615 0
DWIDTH 8 0
BBX 8 14 0 0
BITMAP
18
14
18
00
18
18
24
24
24
22
7E
42
41
81
ENDCHAR
STARTCHAR 00C6
ENCODING 198
SWIDTH 923 0
DWIDTH 12 0
BBX 11 10 0 0
BITMAP
1FE0
1600
2600
2600
27E0
2600
7E00
4600
4600
87E0
ENDCHAR
STARTCHAR 00C7
ENCODING 199
SWIDTH 615 0
DWIDTH 8 0
BBX 6 13 1 -3
BITMAP
7C
80
80
80
80
80
80
80
80
7C
08
08
30
ENDCHAR
STARTCHAR 00C8
ENCODING 200
SWIDTH 615 0
DWIDTH 8 0
BBX 6 14 1 0
BITMAP
20
20
10
00
FC
80
80
80
FC
80
80
80
80
FC
ENDCHAR
STARTCHAR 00C9
ENCODING 201
SWIDTH 615 0
DWIDTH 8 0
BBX 6 14 1 0
BITMAP
18
10
20
00
FC
80
80
80
FC
80
80
80
80
FC
ENDCHAR
STARTCHAR 00CA
ENCODING 202
SWIDTH 615 0
DWIDTH 8 0
BBX 6 14 1 0
BITMAP
10
30
48
00
FC
80
80
80
FC
80
80
80
80
FC
ENDCHAR
STARTCHAR 00CB
ENCODING 203
SWIDTH 615 0
DWIDTH 8 0
BBX 6 12 1 0
BITMAP
48
00
FC
80
80
80
FC
80
80
80
80
FC
ENDCHAR
STARTCHAR 00CC
ENCODING 204
SWIDTH 230 0
DWIDTH 3 0
BBX 3 14 0 0
BITMAP
80
40
60
00
40
40
40
40
40
40
40
40
40
40
ENDCHAR
STARTCHAR 00CD
ENCODING 205
SWIDTH 230 0
DWIDTH 3 0
BBX 2 14 1 0
BITMAP
40
40
80
00
80
80
80
80
80
80
80
80
80
80
ENDCHAR
STARTCHAR 00CE
ENCODING 206
SWIDTH 230 0
DWIDTH 3 0
BBX 4 14 0 0
BITMAP
40
60
B0
00
40
40
40
40
40
40
40
40
40
40
ENDCHAR
STARTCHAR 00CF
ENCODING 207
SWIDTH 230 0
DWIDTH 3 0
BBX 3 12 0 0
BITMAP
A0
00
40
40
40
40
40
40
40
40
40
40
ENDCHAR
STARTCHAR 00D0
ENCODING 208
SWIDTH 692 0
DWIDTH 9 0
BBX 8 10 0 0
BITMAP
7E
41
41
41
41
F9
41
41
41
7E
ENDCHAR
STARTCHAR 00D1
ENCODING 209
SWIDTH 692 0
DWIDTH 9 0
BBX 7 13 1 0
BITMAP
34
28
00
C2
C2
A2
A2
92
9A
8A
86
86
82
ENDCHAR
STARTCHAR 00D2
ENCODING 210
SWIDTH 692 0
DWIDTH 9 0
BBX 7 14 1 0
BITMAP
20
10
10
00
7E
82
82
82
82
82
82
82
82
7E
ENDCHAR
STARTCHAR 00D3
ENCODING 211
SWIDTH 692 0
DWIDTH 9 0
BBX 7 14 1 0
BITMAP
08
10
10
00
7E
82
82
82
82
82
82
82
82
7E
ENDCHAR
STARTCHAR 00D4
ENCODING 212
SWIDTH 692 0
DWIDTH 9 0
BBX 7 14 1 0
BITMAP
10
28
28
00
7E
82
82
82
82
82
82
82
82
7E
ENDCHAR
STARTCHAR 00D5
ENCODING 213
SWIDTH 692 0
DWIDTH 9 0
BBX 7 13 1 0
BITMAP
34
58
00
7E
82
82
82
82
82
82
82
82
7E
ENDCHAR
STARTCHAR 00D6
ENCODING 214
SWIDTH 692 0
DWIDTH 9 0
BBX 7 12 1 0
BITMAP
28
00
7E
82
82
82
82
82
82
82
82
7E
ENDCHAR
STARTCHAR 00D7
ENCODING 215
SWIDTH 615 0
DWIDTH 8 0
BBX 5 5 1 2
BITMAP
88
50
20
50
88
ENDCHAR
STARTCHAR 00D8
ENCODING 216
SWIDTH 692 0
DWIDTH 9 0
BBX 7 10 1 0
BITMAP
7E
82
86
8A
92
92
A2
C2
82
7E
ENDCHAR
STARTCHAR 00D9
ENCODING 217
SWIDTH 692 0
DWIDTH 9 0
BBX 7 14 1 0
BITMAP
20
10
10
00
82
82
82
82
82
82
82
82
82
7C
ENDCHAR
STARTCHAR 00DA
ENCODING 218
SWIDTH 692 0
DWIDTH 9 0
BBX 7 14 1 0
BITMAP
08
10
10
00
82
82
82
82
82
82
82
82
82
7C
ENDCHAR
STARTCHAR 00DB
ENCODING 219
SWIDTH 692 0
DWIDTH 9 0
BBX 7 14 1 0
BITMAP
10
28
28
00
82
82
82
82
82
82
82
82
82
7C
ENDCHAR
STARTCHAR 00DC
ENCODING 220
SWIDTH 692 0
DWIDTH 9 0
BBX 7 12 1 0
BITMAP
28
00
82
82
82
82
82
82
82
82
82
7C
ENDCHAR
STARTCHAR 00DD
ENCODING 221
SWIDTH 615 0
DWIDTH 8 0
BBX 7 14 0 0
BITMAP
08
08
10
00
C2
46
64
24
28
18
10
10
10
10
ENDCHAR
STARTCHAR 00DE
ENCODING 222
SWIDTH 615 0
DWIDTH 8 0
BBX 6 10 1 0
BITMAP
80
80
FC
84
84
84
84
FC
80
80
ENDCHAR
STARTCHAR 00DF
ENCODING 223
SWIDTH 615 0
DWIDTH 8 0
BBX 6 10 1 0
BITMAP
78
84
84
84
B8
84
84
84
84
B8
ENDCHAR
STARTCHAR 00E0
ENCODING 224
SWIDTH 538 0
DWIDTH 7 0
BBX 5 11 1 0
BITMAP
40
20
20
00
F8
08
08
F8
88
88
F8
ENDCHAR
STARTCHAR 00E1
ENCODING 225
SWIDTH 538 0
DWIDTH 7 0
BBX 5 11 1 0
BITMAP
10
20
20
00
F8
08
08
F8
88
88
F8
ENDCHAR
STARTCHAR 00E2
ENCODING 226
SWIDTH 538 0
DWIDTH 7 0
BBX 5 11 1 0
BITMAP
20
50
50
00
F8
08
08
F8
88
88
F8
ENDCHAR
STARTCHAR 00E3
ENCODING 227
SWIDTH 538 0
DWIDTH 7 0
BBX 5 10 1 0
BITMAP
68
B0
00
F8
08
08
F8
88
88
F8
ENDCHAR
STARTCHAR 00E4
ENCODING 228
SWIDTH 538 0
DWIDTH 7 0
BBX 5 9 1 0
BITMAP
50
00
F8
08
08
F8
88
88
F8
ENDCHAR
STARTCHAR 00E5
ENCODING 229
SWIDTH 538 0
DWIDTH 7 0
BBX 5 11 1 0
BITMAP
70
50
70
00
F8
08
08
F8
88
88
F8
ENDCHAR
STARTCHAR 00E6
ENCODING 230
SWIDTH 846 0
DWIDTH 11 0
BBX 9 7 1 0
BITMAP
F780
0880
0880
FF80
8800
8800
F780
ENDCHAR
STARTCHAR 00E7
ENCODING 231
SWIDTH 538 0
DWIDTH 7 0
BBX 5 10 1 -3
BITMAP
F8
80
80
80
80
80
F8
10
10
60
ENDCHAR
STARTCHAR 00E8
ENCODING 232
SWIDTH 538 0
DWIDTH 7 0
BBX 6 11 1 0
BITMAP
40
20
30
00
F8
88
8C
FC
80
80
F8
ENDCHAR
STARTCHAR 00E9
ENCODING 233
SWIDTH 538 0
DWIDTH 7 0
BBX 6 11 1 0
BITMAP
10
10
20
00
F8
88
8C
FC
80
80
F8
ENDCHAR
STARTCHAR 00EA
ENCODING 234
SWIDTH 538 0
DWIDTH 7 0
BBX 6 11 1 0
BITMAP
20
30
58
00
F8
88
8C
FC
80
80
F8
ENDCHAR
STARTCHAR 00EB
ENCODING 235
SWIDTH 538 0
DWIDTH 7 0
BBX 6 9 1 0
BITMAP
50
00
F8
88
8C
FC
80
80
F8
ENDCHAR
STARTCHAR 00EC
ENCODING 236
SWIDTH 230 0
DWIDTH 3 0
BBX 2 11 0 0
BITMAP
80
40
40
00
40
40
40
40
40
40
40
ENDCHAR
STARTCHAR 00ED
ENCODING 237
SWIDTH 230 0
DWIDTH 3 0
BBX 2 11 1 0
BITMAP
40
80
80
00
80
80
80
80
80
80
80
ENDCHAR
STARTCHAR 00EE
ENCODING 238
SWIDTH 230 0
DWIDTH 3 0
BBX 3 11 0 0
BITMAP
40
A0
A0
00
40
40
40
40
40
40
40
ENDCHAR
STARTCHAR 00EF
ENCODING 239
SWIDTH 230 0
DWIDTH 3 0
BBX 3 9 0 0
BITMAP
A0
00
40
40
40
40
40
40
40
ENDCHAR
STARTCHAR 00F0
ENCODING 240
SWIDTH 615 0
DWIDTH 8 0
BBX 6 10 1 0
BITMAP
20
1C
38
08
FC
84
84
84
84
F8
ENDCHAR
STARTCHAR 00F1
ENCODING 241
SWIDTH 615 0
DWIDTH 8 0
BBX 6 10 1 0
BITMAP
68
50
00
F8
84
84
84
84
84
84
ENDCHAR
STARTCHAR 00F2
ENCODING 242
SWIDTH 615 0
DWIDTH 8 0
BBX 6 11 1 0
BITMAP
40
20
10
00
F8
84
84
84
84
84
F8
ENDCHAR
STARTCHAR 00F3
ENCODING 243
SWIDTH 615 0
DWIDTH 8 0
BBX 6 11 1 0
BITMAP
10
10
20
00
F8
84
84
84
84
84
F8
ENDCHAR
STARTCHAR 00F4
ENCODING 244
SWIDTH 615 0
DWIDTH 8 0
BBX 6 11 1 0
BITMAP
20
30
48
00
F8
84
84
84
84
84
F8
ENDCHAR
STARTCHAR 00F5
ENCODING 245
SWIDTH 615 0
DWIDTH 8 0
BBX 6 10 1 0
BITMAP
68
50
00
F8
84
84
84
84
84
F8
ENDCHAR
STARTCHAR 00F6
ENCODING 246
SWIDTH 615 0
DWIDTH 8 0
BBX 6 9 1 0
BITMAP
50
00
F8
84
84
84
84
84
F8
ENDCHAR
STARTCHAR 00F7
ENCODING 247
SWIDTH 615 0
DWIDTH 8 0
BBX 6 7 1 1
BITMAP
20
00
00
FC
00
00
20
ENDCHAR
STARTCHAR 00F8
ENCODING 248
SWIDTH 615 0
DWIDTH 8 0
BBX 6 7 1 0
BITMAP
F8
8C
94
A4
C4
84
F8
ENDCHAR
STARTCHAR 00F9
ENCODING 249
SWIDTH 615 0
DWIDTH 8 0
BBX 6 11 1 0
BITMAP
40
20
10
00
84
84
84
84
84
84
FC
ENDCHAR
STARTCHAR 00FA
ENCODING 250
SWIDTH 615 0
DWIDTH 8 0
BBX 6 11 1 0
BITMAP
10
10
20
00
84
84
84
84
84
84
FC
ENDCHAR
STARTCHAR 00FB
ENCODING 251
SWIDTH 615 0
DWIDTH 8 0
BBX 6 11 1 0
BITMAP
20
30
48
00
84
84
84
84
84
84
FC
ENDCHAR
STARTCHAR 00FC
ENCODING 252
SWIDTH 615 0
DWIDTH 8 0
BBX 6 9 1 0
BITMAP
50
00
84
84
84
84
84
84
FC
ENDCHAR
STARTCHAR 00FD
ENCODING 253
SWIDTH 538 0
DWIDTH 7 0
BBX 7 14 0 -3
BITMAP
08
10
10
00
86
44
44
48
28
28
30
10
10
20
ENDCHAR
STARTCHAR 00FE
ENCODING 254
SWIDTH 615 0
DWIDTH 8 0
BBX 6 13 1 -3
BITMAP
80
80
80
F8
84
84
84
84
84
F8
80
80
80
ENDCHAR
STARTCHAR 00FF
ENCODING 255
SWIDTH 538 0
DWIDTH 7 0
BBX 7 12 0 -3
BITMAP
28
00
86
44
44
48
28
28
30
10
10
20
ENDCHAR
STARTCHAR 0100
ENCODING 256
SWIDTH 615 0
DWIDTH 8 0
BBX 8 12 0 0
BITMAP
3C
00
18
18
24
24
24
22
7E
42
41
81
ENDCHAR
STARTCHAR 0101
ENCODING 257
SWIDTH 538 0
DWIDTH 7 0
BBX 5 9 1 0
BITMAP
70
00
F8
08
08
F8
88
88
F8
ENDCHAR
STARTCHAR 0102
ENCODING 258
SWIDTH 615 0
DWIDTH 8 0
BBX 8 13 0 0
BITMAP
24
1C
00
18
18
24
24
24
22
7E
42
41
81
ENDCHAR
STARTCHAR 0103
ENCODING 259
SWIDTH 538 0
DWIDTH 7 0
BBX 5 10 1 0
BITMAP
50
70
00
F8
08
08
F8
88
88
F8
ENDCHAR
STARTCHAR 0104
ENCODING 260
SWIDTH 615 0
DWIDTH 8 0
BBX 8 13 0 -3
BITMAP
18
18
24
24
24
22
7E
42
41
83
04
04
03
ENDCHAR
STARTCHAR 0105
ENCODING 261
SWIDTH 538 0
DWIDTH 7 0
BBX 5 10 1 -3
BITMAP
F8
08
08
F8
88
88
F8
20
20
18
ENDCHAR
STARTCHAR 0106
ENCODING 262
SWIDTH 615 0
DWIDTH 8 0
BBX 6 14 1 0
BITMAP
08
10
10
00
7C
80
80
80
80
80
80
80
80
7C
ENDCHAR
STARTCHAR 0107
ENCODING 263
SWIDTH 538 0
DWIDTH 7 0
BBX 5 11 1 0
BITMAP
10
30
20
00
F8
80
80
80
80
80
F8
ENDCHAR
STARTCHAR 010C
ENCODING 268
SWIDTH 615 0
DWIDTH 8 0
BBX 6 14 1 0
BITMAP
28
28
10
00
7C
80
80
80
80
80
80
80
80
7C
ENDCHAR
STARTCHAR 010D
ENCODING 269
SWIDTH 538 0
DWIDTH 7 0
BBX 5 11 1 0
BITMAP
50
30
20
00
F8
80
80
80
80
80
F8
ENDCHAR
STARTCHAR 010E
ENCODING 270
SWIDTH 692 0
DWIDTH 9 0
BBX 7 14 1 0
BITMAP
68
30
10
00
FC
86
82
82
82
82
82
82
86
FC
ENDCHAR
STARTCHAR 010F
ENCODING 271
SWIDTH 615 0
DWIDTH 8 0
BBX 8 11 1 0
BITMAP
03
0E
0E
0C
FC
8C
8C
8C
8C
8C
FC
ENDCHAR
STARTCHAR 0110
ENCODING 272
SWIDTH 692 0
DWIDTH 9 0
BBX 8 10 0 0
BITMAP
7E
41
41
41
41
F9
41
41
41
7E
ENDCHAR
STARTCHAR 0111
ENCODING 273
SWIDTH 615 0
DWIDTH 8 0
BBX 6 10 1 0
BITMAP
0C
3C
0C
FC
8C
8C
8C
8C
8C
FC
ENDCHAR
STARTCHAR 0112
ENCODING 274
SWIDTH 615 0
DWIDTH 8 0
BBX 6 12 1 0
BITMAP
78
00
FC
80
80
80
FC
80
80
80
80
FC
ENDCHAR
STARTCHAR 0113
ENCODING 275
SWIDTH 538 0
DWIDTH 7 0
BBX 6 9 1 0
BITMAP
70
00
F8
88
8C
FC
80
80
F8
ENDCHAR
STARTCHAR 0116
ENCODING 278
SWIDTH 615 0
DWIDTH 8 0
BBX 6 12 1 0
BITMAP
10
00
FC
80
80
80
FC
80
80
80
80
FC
ENDCHAR
STARTCHAR 0117
ENCODING 279
SWIDTH 538 0
DWIDTH 7 0
BBX 6 9 1 0
BITMAP
20
00
F8
88
8C
FC
80
80
F8
ENDCHAR
STARTCHAR 0118
ENCODING 280
SWIDTH 615 0
DWIDTH 8 0
BBX 6 13 1 -3
BITMAP
FC
80
80
80
FC
80
80
80
80
FC
10
10
0C
ENDCHAR
STARTCHAR 0119
ENCODING 281
SWIDTH 538 0
DWIDTH 7 0
BBX 6 10 1 -3
BITMAP
F8
88
8C
FC
80
80
F8
10
10
18
ENDCHAR
STARTCHAR 011A
ENCODING 282
SWIDTH 615 0
DWIDTH 8 0
BBX 6 14 1 0
BITMAP
48
30
10
00
FC
80
80
80
FC
80
80
80
80
FC
ENDCHAR
STARTCHAR 011B
ENCODING 283
SWIDTH 538 0
DWIDTH 7 0
BBX 6 11 1 0
BITMAP
58
30
20
00
F8
88
8C
FC
80
80
F8
ENDCHAR
STARTCHAR 011E
ENCODING 286
SWIDTH 692 0
DWIDTH 9 0
BBX 7 13 1 0
BITMAP
28
38
00
7E
80
80
80
9E
82
82
82
82
7E
ENDCHAR
STARTCHAR 011F
ENCODING 287
SWIDTH 615 0
DWIDTH 8 0
BBX 6 13 1 -3
BITMAP
48
70
00
FC
8C
8C
8C
8C
8C
FC
0C
08
F8
ENDCHAR
STARTCHAR 0122
ENCODING 290
SWIDTH 692 0
DWIDTH 9 0
BBX 7 13 1 -3
BITMAP
7E
80
80
80
9E
82
82
82
82
7E
00
10
10
ENDCHAR
STARTCHAR 0123
ENCODING 291
SWIDTH 615 0
DWIDTH 8 0
BBX 6 13 1 -3
BITMAP
10
20
00
FC
8C
8C
8C
8C
8C
FC
0C
08
F8
ENDCHAR
STARTCHAR 012A
ENCODING 298
SWIDTH 230 0
DWIDTH 3 0
BBX 3 12 0 0
BITMAP
E0
00
40
40
40
40
40
40
40
40
40
40
ENDCHAR
STARTCHAR 012B
ENCODING 299
SWIDTH 230 0
DWIDTH 3 0
BBX 3 9 0 0
BITMAP
E0
00
40
40
40
40
40
40
40
ENDCHAR
STARTCHAR 012E
ENCODING 302
SWIDTH 230 0
DWIDTH 3 0
BBX 3 13 0 -3
BITMAP
40
40
40
40
40
40
40
40
40
40
80
80
60
ENDCHAR
STARTCHAR 012F
ENCODING 303
SWIDTH 230 0
DWIDTH 3 0
BBX 3 12 0 -3
BITMAP
40
00
40
40
40
40
40
40
C0
80
80
E0
ENDCHAR
STARTCHAR 0130
ENCODING 304
SWIDTH 230 0
DWIDTH 3 0
BBX 1 12 1 0
BITMAP
80
00
80
80
80
80
80
80
80
80
80
80
ENDCHAR
STARTCHAR 0131
ENCODING 305
SWIDTH 230 0
DWIDTH 3 0
BBX 1 7 1 0
BITMAP
80
80
80
80
80
80
80
ENDCHAR
STARTCHAR 0136
ENCODING 310
SWIDTH 615 0
DWIDTH 8 0
BBX 7 13 1 -3
BITMAP
86
8C
98
90
B0
D0
88
88
84
86
00
10
20
ENDCHAR
STARTCHAR 0137
ENCODING 311
SWIDTH 538 0
DWIDTH 7 0
BBX 6 13 1 -3
BITMAP
80
80
80
88
90
A0
E0
D0
98
8C
00
20
20
ENDCHAR
STARTCHAR 0139
ENCODING 313
SWIDTH 538 0
DWIDTH 7 0
BBX 6 14 1 0
BITMAP
40
40
80
00
80
80
80
80
80
80
80
80
80
FC
ENDCHAR
STARTCHAR 013A
ENCODING 314
SWIDTH 230 0
DWIDTH 3 0
BBX 2 14 1 0
BITMAP
40
80
80
00
80
80
80
80
80
80
80
80
80
C0
ENDCHAR
STARTCHAR 013B
ENCODING 315
SWIDTH 538 0
DWIDTH 7 0
BBX 6 13 1 -3
BITMAP
80
80
80
80
80
80
80
80
80
FC
00
20
20
ENDCHAR
STARTCHAR 013C
ENCODING 316
SWIDTH 230 0
DWIDTH 3 0
BBX 2 13 1 -3
BITMAP
80
80
80
80
80
80
80
80
80
C0
00
C0
80
ENDCHAR
STARTCHAR 013D
ENCODING 317
SWIDTH 538 0
DWIDTH 7 0
BBX 6 10 1 0
BITMAP
90
90
90
80
80
80
80
80
80
FC
ENDCHAR
STARTCHAR 013E
ENCODING 318
SWIDTH 307 0
DWIDTH 4 0
BBX 3 11 1 0
BITMAP
20
A0
A0
80
80
80
80
80
80
80
C0
ENDCHAR
STARTCHAR 0141
ENCODING 321
SWIDTH 538 0
DWIDTH 7 0
BBX 7 10 0 0
BITMAP
40
40
40
48
70
40
C0
40
40
7E
ENDCHAR
STARTCHAR 0142
ENCODING 322
SWIDTH 307 0
DWIDTH 4 0
BBX 4 10 0 0
BITMAP
40
40
40
40
70
C0
40
40
40
20
ENDCHAR
STARTCHAR 0143
ENCODING 323
SWIDTH 692 0
DWIDTH 9 0
BBX 7 14 1 0
BITMAP
08
08
10
00
C2
C2
A2
A2
92
9A
8A
86
86
82
ENDCHAR
STARTCHAR 0144
ENCODING 324
SWIDTH 615 0
DWIDTH 8 0
BBX 6 11 1 0
BITMAP
10
10
20
00
F8
84
84
84
84
84
84
ENDCHAR
STARTCHAR 0145
ENCODING 325
SWIDTH 692 0
DWIDTH 9 0
BBX 7 13 1 -3
BITMAP
C2
C2
A2
A2
92
9A
8A
86
86
82
00
10
10
ENDCHAR
STARTCHAR 0146
ENCODING 326
SWIDTH 615 0
DWIDTH 8 0
BBX 6 10 1 -3
BITMAP
F8
84
84
84
84
84
84
00
20
20
ENDCHAR
STARTCHAR 0147
ENCODING 327
SWIDTH 692 0
DWIDTH 9 0
BBX 7 14 1 0
BITMAP
24
18
10
00
C2
C2
A2
A2
92
9A
8A
86
86
82
ENDCHAR
STARTCHAR 0148
ENCODING 328
SWIDTH 615 0
DWIDTH 8 0
BBX 6 11 1 0
BITMAP
48
30
20
00
F8
84
84
84
84
84
84
ENDCHAR
STARTCHAR 014C
ENCODING 332
SWIDTH 692 0
DWIDTH 9 0
BBX 7 12 1 0
BITMAP
38
00
7E
82
82
82
82
82
82
82
82
7E
ENDCHAR
STARTCHAR 014D
ENCODING 333
SWIDTH 615 0
DWIDTH 8 0
BBX 6 9 1 0
BITMAP
70
00
F8
84
84
84
84
84
F8
ENDCHAR
STARTCHAR 0150
ENCODING 336
SWIDTH 692 0
DWIDTH 9 0
BBX 7 14 1 0
BITMAP
14
24
28
00
7E
82
82
82
82
82
82
82
82
7E
ENDCHAR
STARTCHAR 0151
ENCODING 337
SWIDTH 615 0
DWIDTH 8 0
BBX 6 11 1 0
BITMAP
28
28
50
00
F8
84
84
84
84
84
F8
ENDCHAR
STARTCHAR 0152
ENCODING 338
SWIDTH 1000 0
DWIDTH 13 0
BBX 11 10 1 0
BITMAP
7FE0
8400
8400
8400
87C0
8400
8400
8400
8400
7FE0
ENDCHAR
STARTCHAR 0153
ENCODING 339
SWIDTH 923 0
DWIDTH 12 0
BBX 10 7 1 0
BITMAP
FF80
8C40
8C40
8FC0
8C00
8C00
FFC0
ENDCHAR
STARTCHAR 0154
ENCODING 340
SWIDTH 615 0
DWIDTH 8 0
BBX 7 14 1 0
BITMAP
18
10
20
00
FC
84
84
84
84
FC
88
8C
84
86
ENDCHAR
STARTCHAR 0155
ENCODING 341
SWIDTH 384 0
DWIDTH 5 0
BBX 4 11 1 0
BITMAP
20
60
40
00
F0
80
80
80
80
80
80
ENDCHAR
STARTCHAR 0156
ENCODING 342
SWIDTH 615 0
DWIDTH 8 0
BBX 7 13 1 -3
BITMAP
FC
84
84
84
84
FC
88
8C
84
86
00
10
20
ENDCHAR
STARTCHAR 0157
ENCODING 343
SWIDTH 384 0
DWIDTH 5 0
BBX 4 10 1 -3
BITMAP
F0
80
80
80
80
80
80
00
80
80
ENDCHAR
STARTCHAR 0158
ENCODING 344
SWIDTH 615 0
DWIDTH 8 0
BBX 7 14 1 0
BITMAP
48
30
10
00
FC
84
84
84
84
FC
88
8C
84
86
ENDCHAR
STARTCHAR 0159
ENCODING 345
SWIDTH 384 0
DWIDTH 5 0
BBX 4 11 1 0
BITMAP
B0
60
40
00
F0
80
80
80
80
80
80
ENDCHAR
STARTCHAR 015A
ENCODING 346
SWIDTH 615 0
DWIDTH 8 0
BBX 6 14 1 0
BITMAP
10
10
20
00
FC
80
80
80
F0
0C
04
04
04
F8
ENDCHAR
STARTCHAR 015B
ENCODING 347
SWIDTH 538 0
DWIDTH 7 0
BBX 5 11 1 0
BITMAP
10
20
40
00
F0
80
80
70
08
08
F0
ENDCHAR
STARTCHAR 015E
ENCODING 350
SWIDTH 615 0
DWIDTH 8 0
BBX 6 13 1 -3
BITMAP
FC
80
80
80
F0
0C
04
04
04
F8
10
10
60
ENDCHAR
STARTCHAR 015F
ENCODING 351
SWIDTH 538 0
DWIDTH 7 0
BBX 5 10 1 -3
BITMAP
F0
80
80
70
08
08
F0
20
20
60
ENDCHAR
STARTCHAR 0160
ENCODING 352
SWIDTH 615 0
DWIDTH 8 0
BBX 6 14 1 0
BITMAP
48
30
20
00
FC
80
80
80
F0
0C
04
04
04
F8
ENDCHAR
STARTCHAR 0161
ENCODING 353
SWIDTH 538 0
DWIDTH 7 0
BBX 5 11 1 0
BITMAP
90
60
20
00
F0
80
80
70
08
08
F0
ENDCHAR
STARTCHAR 0162
ENCODING 354
SWIDTH 615 0
DWIDTH 8 0
BBX 7 13 0 -3
BITMAP
FE
10
10
10
10
10
10
10
10
10
08
08
38
ENDCHAR
STARTCHAR 0163
ENCODING 355
SWIDTH 384 0
DWIDTH 5 0
BBX 4 13 1 -3
BITMAP
80
80
80
F0
80
80
80
80
80
70
20
20
E0
ENDCHAR
STARTCHAR 0164
ENCODING 356
SWIDTH 615 0
DWIDTH 8 0
BBX 7 14 0 0
BITMAP
24
18
10
00
FE
10
10
10
10
10
10
10
10
10
ENDCHAR
STARTCHAR 0165
ENCODING 357
SWIDTH 384 0
DWIDTH 5 0
BBX 4 11 1 0
BITMAP
20
A0
A0
80
F0
80
80
80
80
80
70
ENDCHAR
STARTCHAR 016A
ENCODING 362
SWIDTH 692 0
DWIDTH 9 0
BBX 7 12 1 0
BITMAP
38
00
82
82
82
82
82
82
82
82
82
7C
ENDCHAR
STARTCHAR 016B
ENCODING 363
SWIDTH 615 0
DWIDTH 8 0
BBX 6 9 1 0
BITMAP
70
00
84
84
84
84
84
84
FC
ENDCHAR
STARTCHAR 016E
ENCODING 366
SWIDTH 692 0
DWIDTH 9 0
BBX 7 14 1 0
BITMAP
38
28
38
00
82
82
82
82
82
82
82
82
82
7C
ENDCHAR
STARTCHAR 016F
ENCODING 367
SWIDTH 615 0
DWIDTH 8 0
BBX 6 11 1 0
BITMAP
30
50
30
00
84
84
84
84
84
84
FC
ENDCHAR
STARTCHAR 0170
ENCODING 368
SWIDTH 692 0
DWIDTH 9 0
BBX 7 14 1 0
BITMAP
14
24
28
00
82
82
82
82
82
82
82
82
82
7C
ENDCHAR
STARTCHAR 0171
ENCODING 369
SWIDTH 615 0
DWIDTH 8 0
BBX 6 11 1 0
BITMAP
28
28
50
00
84
84
84
84
84
84
FC
ENDCHAR
STARTCHAR 0172
ENCODING 370
SWIDTH 692 0
DWIDTH 9 0
BBX 7 13 1 -3
BITMAP
82
82
82
82
82
82
82
82
82
7C
10
10
1C
ENDCHAR
STARTCHAR 0173
ENCODING 371
SWIDTH 615 0
DWIDTH 8 0
BBX 6 10 1 -3
BITMAP
84
84
84
84
84
84
FC
10
10
0C
ENDCHAR
STARTCHAR 0178
ENCODING 376
SWIDTH 615 0
DWIDTH 8 0
BBX 7 12 0 0
BITMAP
28
00
C2
46
64
24
28
18
10
10
10
10
ENDCHAR
STARTCHAR 0179
ENCODING 377
SWIDTH 615 0
DWIDTH 8 0
BBX 6 14 1 0
BITMAP
10
10
20
00
FC
0C
08
10
10
20
60
40
80
FC
ENDCHAR
STARTCHAR 017A
ENCODING 378
SWIDTH 538 0
DWIDTH 7 0
BBX 5 11 1 0
BITMAP
10
20
60
00
F8
10
30
20
40
80
F8
ENDCHAR
STARTCHAR 017B
ENCODING 379
SWIDTH 615 0
DWIDTH 8 0
BBX 6 12 1 0
BITMAP
20
00
FC
0C
08
10
10
20
60
40
80
FC
ENDCHAR
STARTCHAR 017C
ENCODING 380
SWIDTH 538 0
DWIDTH 7 0
BBX 5 9 1 0
BITMAP
20
00
F8
10
30
20
40
80
F8
ENDCHAR
STARTCHAR 017D
ENCODING 381
SWIDTH 615 0
DWIDTH 8 0
BBX 6 14 1 0
BITMAP
48
30
20
00
FC
0C
08
10
10
20
60
40
80
FC
ENDCHAR
STARTCHAR 017E
ENCODING 382
SWIDTH 538 0
DWIDTH 7 0
BBX 5 11 1 0
BITMAP
50
60
20
00
F8
10
30
20
40
80
F8
ENDCHAR
STARTCHAR 0192
ENCODING 402
SWIDTH 538 0
DWIDTH 7 0
BBX 5 12 1 -2
BITMAP
38
20
60
78
60
60
60
60
60
60
40
C0
ENDCHAR
STARTCHAR 0218
ENCODING 536
SWIDTH 615 0
DWIDTH 8 0
BBX 6 13 1 -3
BITMAP
FC
80
80
80
F0
0C
04
04
04
F8
00
20
20
ENDCHAR
STARTCHAR 0219
ENCODING 537
SWIDTH 538 0
DWIDTH 7 0
BBX 5 10 1 -3
BITMAP
F0
80
80
70
08
08
F0
00
20
40
ENDCHAR
STARTCHAR 021A
ENCODING 538
SWIDTH 615 0
DWIDTH 8 0
BBX 7 13 0 -3
BITMAP
FE
10
10
10
10
10
10
10
10
10
00
10
10
ENDCHAR
STARTCHAR 021B
ENCODING 539
SWIDTH 384 0
DWIDTH 5 0
BBX 4 13 1 -3
BITMAP
80
80
80
F0
80
80
80
80
80
70
00
40
40
ENDCHAR
STARTCHAR 0237
ENCODING 567
SWIDTH 230 0
DWIDTH 3 0
BBX 2 10 0 -3
BITMAP
40
40
40
40
40
40
40
40
40
80
ENDCHAR
STARTCHAR 02C6
ENCODING 710
SWIDTH 538 0
DWIDTH 7 0
BBX 4 3 1 8
BITMAP
20
60
90
ENDCHAR
STARTCHAR 02C7
ENCODING 711
SWIDTH 538 0
DWIDTH 7 0
BBX 4 3 1 8
BITMAP
90
60
20
ENDCHAR
STARTCHAR 02C9
ENCODING 713
SWIDTH 538 0
DWIDTH 7 0
BBX 3 1 2 8
BITMAP
E0
ENDCHAR
STARTCHAR 02D8
ENCODING 728
SWIDTH 538 0
DWIDTH 7 0
BBX 3 2 2 8
BITMAP
A0
E0
ENDCHAR
STARTCHAR 02D9
ENCODING 729
SWIDTH 538 0
DWIDTH 7 0
BBX 1 1 3 8
BITMAP
80
ENDCHAR
STARTCHAR 02DA
ENCODING 730
SWIDTH 538 0
DWIDTH 7 0
BBX 3 3 2 8
BITMAP
C0
A0
C0
ENDCHAR
STARTCHAR 02DB
ENCODING 731
SWIDTH 538 0
DWIDTH 7 0
BBX 3 4 2 -3
BITMAP
40
80
80
60
ENDCHAR
STARTCHAR 02DC
ENCODING 732
SWIDTH 538 0
DWIDTH 7 0
BBX 4 2 1 8
BITMAP
50
B0
ENDCHAR
STARTCHAR 02DD
ENCODING 733
SWIDTH 538 0
DWIDTH 7 0
BBX 4 3 2 8
BITMAP
50
A0
A0
ENDCHAR
STARTCHAR 0300
ENCODING 768
SWIDTH 0 0
DWIDTH 0 0
BBX 2 3 -5 8
BITMAP
80
80
40
ENDCHAR
STARTCHAR 0301
ENCODING 769
SWIDTH 0 0
DWIDTH 0 0
BBX 3 3 -5 8
BITMAP
20
40
80
ENDCHAR
STARTCHAR 0302
ENCODING 770
SWIDTH 0 0
DWIDTH 0 0
BBX 4 3 -6 8
BITMAP
20
60
D0
ENDCHAR
STARTCHAR 0303
ENCODING 771
SWIDTH 0 0
DWIDTH 0 0
BBX 4 2 -6 8
BITMAP
50
B0
ENDCHAR
STARTCHAR 0304
ENCODING 772
SWIDTH 0 0
DWIDTH 0 0
BBX 3 1 -5 8
BITMAP
E0
ENDCHAR
STARTCHAR 0306
ENCODING 774
SWIDTH 0 0
DWIDTH 0 0
BBX 3 2 -5 8
BITMAP
A0
E0
ENDCHAR
STARTCHAR 0307
ENCODING 775
SWIDTH 0 0
DWIDTH 0 0
BBX 1 1 -4 8
BITMAP
80
ENDCHAR
STARTCHAR 0308
ENCODING 776
SWIDTH 0 0
DWIDTH 0 0
BBX 3 1 -5 8
BITMAP
A0
ENDCHAR
STARTCHAR 030A
ENCODING 778
SWIDTH 0 0
DWIDTH 0 0
BBX 3 3 -5 8
BITMAP
E0
A0
E0
ENDCHAR
STARTCHAR 030B
ENCODING 779
SWIDTH 0 0
DWIDTH 0 0
BBX 4 3 -5 8
BITMAP
50
A0
A0
ENDCHAR
STARTCHAR 030C
ENCODING 780
SWIDTH 0 0
DWIDTH 0 0
BBX 4 3 -6 8
BITMAP
D0
60
20
ENDCHAR
STARTCHAR 0326
ENCODING 806
SWIDTH 0 0
DWIDTH 0 0
BBX 2 2 -5 -3
BITMAP
40
80
ENDCHAR
STARTCHAR 0327
ENCODING 807
SWIDTH 0 0
DWIDTH 0 0
BBX 2 3 -5 -3
BITMAP
40
40
C0
ENDCHAR
STARTCHAR 0328
ENCODING 808
SWIDTH 0 0
DWIDTH 0 0
BBX 3 4 -5 -3
BITMAP
40
80
80
60
ENDCHAR
STARTCHAR 03C0
ENCODING 960
SWIDTH 615 0
DWIDTH 8 0
BBX 6 7 1 0
BITMAP
FC
84
84
84
84
84
84
ENDCHAR
STARTCHAR 1E9E
ENCODING 7838
SWIDTH 692 0
DWIDTH 9 0
BBX 7 10 1 0
BITMAP
7C
84
88
90
9E
82
82
82
82
9E
ENDCHAR
STARTCHAR 2013
ENCODING 8211
SWIDTH 615 0
DWIDTH 8 0
BBX 6 1 1 4
BITMAP
FC
ENDCHAR
STARTCHAR 2014
ENCODING 8212
SWIDTH 1000 0
DWIDTH 13 0
BBX 11 1 1 4
BITMAP
FFE0
ENDCHAR
STARTCHAR 2018
ENCODING 8216
SWIDTH 230 0
DWIDTH 3 0
BBX 2 3 1 7
BITMAP
40
80
80
ENDCHAR
STARTCHAR 2019
ENCODING 8217
SWIDTH 230 0
DWIDTH 3 0
BBX 2 3 1 7
BITMAP
C0
80
80
ENDCHAR
STARTCHAR 201A
ENCODING 8218
SWIDTH 230 0
DWIDTH 3 0
BBX 2 3 0 -1
BITMAP
40
40
80
ENDCHAR
STARTCHAR 201C
ENCODING 8220
SWIDTH 461 0
DWIDTH 6 0
BBX 4 3 1 7
BITMAP
50
90
A0
ENDCHAR
STARTCHAR 201D
ENCODING 8221
SWIDTH 461 0
DWIDTH 6 0
BBX 4 3 1 7
BITMAP
D0
A0
A0
ENDCHAR
STARTCHAR 201E
ENCODING 8222
SWIDTH 461 0
DWIDTH 6 0
BBX 5 3 0 -1
BITMAP
58
50
90
ENDCHAR
STARTCHAR 2020
ENCODING 8224
SWIDTH 461 0
DWIDTH 6 0
BBX 5 11 1 -1
BITMAP
20
20
20
F8
20
20
20
20
20
20
20
ENDCHAR
STARTCHAR 2021
ENCODING 8225
SWIDTH 461 0
DWIDTH 6 0
BBX 5 11 1 -1
BITMAP
20
20
20
F8
20
20
20
F8
20
20
20
ENDCHAR
STARTCHAR 2022
ENCODING 8226
SWIDTH 384 0
DWIDTH 5 0
BBX 3 3 1 3
BITMAP
E0
E0
E0
ENDCHAR
STARTCHAR 2026
ENCODING 8230
SWIDTH 769 0
DWIDTH 10 0
BBX 8 2 1 0
BITMAP
99
99
ENDCHAR
STARTCHAR 2030
ENCODING 8240
SWIDTH 1230 0
DWIDTH 16 0
BBX 14 10 1 0
BITMAP
E200
A200
A400
A400
AB9C
EA64
1264
1264
1264
239C
ENDCHAR
STARTCHAR 2039
ENCODING 8249
SWIDTH 307 0
DWIDTH 4 0
BBX 3 5 0 2
BITMAP
20
40
C0
40
20
ENDCHAR
STARTCHAR 203A
ENCODING 8250
SWIDTH 307 0
DWIDTH 4 0
BBX 3 5 1 2
BITMAP
80
40
60
40
80
ENDCHAR
STARTCHAR 2044
ENCODING 8260
SWIDTH 153 0
DWIDTH 2 0
BBX 5 10 -2 0
BITMAP
08
08
08
10
10
20
20
40
40
80
ENDCHAR
STARTCHAR 2070
ENCODING 8304
SWIDTH 384 0
DWIDTH 5 0
BBX 3 6 1 4
BITMAP
E0
A0
A0
A0
A0
E0
ENDCHAR
STARTCHAR 2074
ENCODING 8308
SWIDTH 384 0
DWIDTH 5 0
BBX 3 6 1 4
BITMAP
40
40
A0
A0
E0
20
ENDCHAR
STARTCHAR 2080
ENCODING 8320
SWIDTH 384 0
DWIDTH 5 0
BBX 3 6 1 0
BITMAP
E0
A0
A0
A0
A0
E0
ENDCHAR
STARTCHAR 2081
ENCODING 8321
SWIDTH 384 0
DWIDTH 5 0
BBX 3 6 1 0
BITMAP
C0
40
40
40
40
E0
ENDCHAR
STARTCHAR 2082
ENCODING 8322
SWIDTH 384 0
DWIDTH 5 0
BBX 3 6 1 0
BITMAP
E0
20
60
80
80
E0
ENDCHAR
STARTCHAR 2083
ENCODING 8323
SWIDTH 384 0
DWIDTH 5 0
BBX 3 6 1 0
BITMAP
E0
20
E0
20
20
E0
ENDCHAR
STARTCHAR 2084
ENCODING 8324
SWIDTH 384 0
DWIDTH 5 0
BBX 3 6 1 0
BITMAP
40
40
A0
A0
E0
20
ENDCHAR
STARTCHAR 20AC
ENCODING 8364
SWIDTH 615 0
DWIDTH 8 0
BBX 7 10 0 0
BITMAP
3E
40
40
FC
40
F8
40
40
60
3E
ENDCHAR
STARTCHAR 20BA
ENCODING 8378
SWIDTH 615 0
DWIDTH 8 0
BBX 7 10 0 0
BITMAP
20
20
38
E0
38
E0
22
22
24
3C
ENDCHAR
STARTCHAR 20BD
ENCODING 8381
SWIDTH 615 0
DWIDTH 8 0
BBX 6 10 1 0
BITMAP
F8
84
84
84
F8
80
F0
80
80
80
ENDCHAR
STARTCHAR 2113
ENCODING 8467
SWIDTH 230 0
DWIDTH 3 0
BBX 2 10 1 0
BITMAP
80
80
80
80
80
80
80
80
80
C0
ENDCHAR
STARTCHAR 2122
ENCODING 8482
SWIDTH 769 0
DWIDTH 10 0
BBX 9 5 0 5
BITMAP
F480
2480
2B80
2B80
2880
ENDCHAR
STARTCHAR 2126
ENCODING 8486
SWIDTH 692 0
DWIDTH 9 0
BBX 7 10 1 0
BITMAP
7E
82
82
82
82
82
82
C6
44
EE
ENDCHAR
STARTCHAR 212E
ENCODING 8494
SWIDTH 846 0
DWIDTH 11 0
BBX 10 10 1 0
BITMAP
3E00
4100
C080
C080
C0C0
FFC0
C000
C000
4100
3E00
ENDCHAR
STARTCHAR 2202
ENCODING 8706
SWIDTH 615 0
DWIDTH 8 0
BBX 6 10 1 0
BITMAP
78
08
0C
0C
FC
8C
8C
8C
88
F8
ENDCHAR
STARTCHAR 2206
ENCODING 8710
SWIDTH 615 0
DWIDTH 8 0
BBX 8 10 0 0
BITMAP
18
1C
34
24
24
22
42
42
41
FF
ENDCHAR
STARTCHAR 220F
ENCODING 8719
SWIDTH 692 0
DWIDTH 9 0
BBX 7 11 1 -1
BITMAP
FE
82
82
82
82
82
82
82
82
82
82
ENDCHAR
STARTCHAR 2211
ENCODING 8721
SWIDTH 615 0
DWIDTH 8 0
BBX 6 11 1 -1
BITMAP
FC
80
40
60
20
10
20
60
40
80
FC
ENDCHAR
STARTCHAR 2212
ENCODING 8722
SWIDTH 615 0
DWIDTH 8 0
BBX 6 1 1 4
BITMAP
FC
ENDCHAR
STARTCHAR 2215
ENCODING 8725
SWIDTH 153 0
DWIDTH 2 0
BBX 5 10 -2 0
BITMAP
08
08
08
10
10
20
20
40
40
80
ENDCHAR
STARTCHAR 2219
ENCODING 8729
SWIDTH 230 0
DWIDTH 3 0
BBX 1 2 1 4
BITMAP
80
80
ENDCHAR
STARTCHAR 221A
ENCODING 8730
SWIDTH 615 0
DWIDTH 8 0
BBX 8 10 0 0
BITMAP
03
02
02
04
04
C4
28
28
28
10
ENDCHAR
STARTCHAR 221E
ENCODING 8734
SWIDTH 615 0
DWIDTH 8 0
BBX 6 4 1 2
BITMAP
FC
A4
A4
FC
ENDCHAR
STARTCHAR 222B
ENCODING 8747
SWIDTH 384 0
DWIDTH 5 0
BBX 5 13 0 -3
BITMAP
18
20
20
20
20
20
20
20
20
20
20
20
E0
ENDCHAR
STARTCHAR 2248
ENCODING 8776
SWIDTH 615 0
DWIDTH 8 0
BBX 6 5 1 2
BITMAP
64
A8
F8
AC
98
ENDCHAR
STARTCHAR 2260
ENCODING 8800
SWIDTH 615 0
DWIDTH 8 0
BBX 6 8 1 0
BITMAP
08
10
FC
20
20
FC
40
40
ENDCHAR
STARTCHAR 2264
ENCODING 8804
SWIDTH 615 0
DWIDTH 8 0
BBX 6 8 1 0
BITMAP
04
18
60
80
60
18
04
FC
ENDCHAR
STARTCHAR 2265
ENCODING 8805
SWIDTH 615 0
DWIDTH 8 0
BBX 6 8 1 0
BITMAP
80
E0
18
04
18
E0
80
FC
ENDCHAR
STARTCHAR 25CA
ENCODING 9674
SWIDTH 615 0
DWIDTH 8 0
BBX 6 10 1 0
BITMAP
20
50
48
88
84
84
88
48
50
20
ENDCHAR
STARTCHAR F000
ENCODING 61440
SWIDTH 692 0
DWIDTH 9 0
BBX 7 7 1 1
BITMAP
10
10
38
3C
7C
FE
FE
ENDCHAR
STARTCHAR FB01
ENCODING 64257
SWIDTH 615 0
DWIDTH 8 0
BBX 6 10 1 0
BITMAP
70
84
80
F4
84
84
84
84
84
84
ENDCHAR
STARTCHAR FB02
ENCODING 64258
SWIDTH 615 0
DWIDTH 8 0
BBX 7 10 1 0
BITMAP
74
84
84
F4
84
84
84
84
84
86
ENDCHAR
ENDFONT
